<?xml version="1.0" standalone="no"?>
<!DOCTYPE svg PUBLIC "-//W3C//DTD SVG 20010904//EN"
 "http://www.w3.org/TR/2001/REC-SVG-20010904/DTD/svg10.dtd">
<svg version="1.0" xmlns="http://www.w3.org/2000/svg"
 width="1200.000000pt" height="1200.000000pt" viewBox="0 0 1200.000000 1200.000000"
 preserveAspectRatio="xMidYMid meet">

<g transform="translate(0.000000,1200.000000) scale(0.100000,-0.100000)"
fill="#000000" stroke="none">
<path d="M0 6000 l0 -6000 6000 0 6000 0 0 6000 0 6000 -6000 0 -6000 0 0
-6000z m7909 2711 c16 -16 21 -17 45 -4 39 20 101 1 125 -39 11 -16 33 -39 51
-49 43 -27 66 -83 51 -126 -11 -28 -9 -35 9 -53 30 -30 28 -99 -5 -138 -14
-17 -25 -40 -25 -52 0 -12 -15 -37 -34 -56 -26 -26 -42 -34 -70 -34 -29 0 -39
-5 -48 -24 -14 -33 -58 -50 -105 -42 -21 4 -61 8 -90 10 -63 3 -100 26 -111
67 -6 24 -16 34 -41 43 -46 15 -75 57 -76 109 -1 23 -7 55 -14 72 -18 43 -6
89 31 121 26 21 32 33 30 59 -4 42 37 92 83 101 18 3 43 17 56 30 29 31 109
34 138 5z m-3476 -295 c38 -26 57 -75 58 -153 0 -58 2 -64 11 -43 6 14 21 48
34 77 26 60 63 85 129 85 55 0 106 -25 145 -68 31 -36 37 -59 20 -84 -9 -13
-11 -13 -20 0 -5 8 -10 20 -10 26 0 16 -52 61 -83 73 -67 26 -113 8 -146 -57
-12 -22 -70 -199 -112 -340 -12 -40 -23 -71 -26 -68 -3 2 1 81 7 174 17 224
12 295 -21 328 -27 27 -83 40 -124 30 -14 -4 -53 -31 -85 -61 -55 -51 -64 -55
-107 -55 -87 0 -163 -63 -163 -134 1 -48 45 -90 229 -217 181 -125 181 -135
-3 -60 -239 97 -305 110 -344 69 -50 -54 -54 -116 -11 -198 29 -57 30 -60 18
-117 -16 -76 -6 -125 32 -163 42 -41 70 -46 121 -21 40 19 213 145 314 227 24
20 47 34 51 31 3 -4 -39 -59 -94 -124 -182 -217 -212 -269 -181 -326 34 -65
107 -90 188 -67 42 12 62 -2 38 -26 -10 -10 -40 -18 -80 -21 -52 -4 -72 -2
-105 16 -50 25 -79 61 -93 112 -12 42 2 84 52 158 13 21 16 31 8 26 -8 -5 -35
-22 -59 -37 -97 -61 -201 -16 -241 105 -9 30 -9 51 1 101 12 61 11 65 -14 117
-43 85 -35 173 20 231 41 43 82 52 153 34 34 -9 64 -16 67 -16 3 0 -19 24 -50
53 -59 57 -67 79 -54 142 11 53 29 79 79 115 34 25 51 30 96 30 54 0 57 2 108
54 30 30 64 57 76 59 45 10 145 0 171 -17z m2724 -118 c38 -39 113 -151 113
-169 0 -16 -105 -121 -144 -144 -35 -20 -245 -105 -261 -105 -3 0 -5 29 -5 64
l0 65 75 61 c68 55 80 71 120 154 25 50 45 97 45 104 0 21 15 13 57 -30z
m-1342 -195 c-20 -49 -19 -56 6 -50 101 23 189 37 231 37 49 0 50 -1 35 -18
-10 -10 -17 -21 -17 -24 0 -3 69 -7 153 -10 161 -4 191 -12 192 -49 0 -20 8
-24 75 -35 41 -7 94 -18 118 -25 40 -11 43 -14 37 -40 -6 -25 -2 -30 32 -46
l38 -18 26 -135 c14 -74 28 -152 32 -173 l6 -38 -27 21 c-124 96 -205 125
-326 117 -130 -8 -216 -51 -178 -89 8 -8 20 -3 41 15 33 27 107 47 174 47 97
-1 206 -45 280 -114 l44 -41 17 -130 c26 -215 30 -262 17 -269 -20 -13 -47 13
-70 69 -22 52 -22 57 -7 74 25 27 19 41 -17 41 -20 0 -51 13 -82 33 -65 44
-115 60 -182 58 -63 -1 -147 -38 -190 -83 -31 -33 -31 -33 77 1 67 22 81 23
138 13 90 -15 154 -59 188 -129 23 -47 28 -71 31 -156 1 -55 5 -102 7 -104 8
-8 35 54 42 96 5 34 10 41 29 41 22 0 22 -2 -18 -92 -35 -80 -41 -102 -39
-155 1 -35 3 -91 4 -125 1 -35 -4 -76 -11 -93 l-14 -30 -7 30 c-5 17 -11 51
-14 76 -10 70 -24 83 -71 70 -23 -6 -74 -8 -124 -4 -47 3 -99 5 -116 4 -16 0
-196 -3 -400 -4 -275 -3 -377 -1 -397 9 -19 9 -29 9 -38 0 -11 -11 -180 -12
-233 0 -24 5 -29 2 -41 -28 -8 -18 -18 -55 -22 -83 l-7 -50 -13 30 c-18 41
-17 101 2 151 15 39 15 46 -1 96 -10 29 -33 86 -51 126 -32 70 -32 73 -12 70
16 -2 24 -15 35 -57 13 -51 31 -86 40 -78 2 2 5 51 6 108 5 132 28 188 100
236 85 57 180 64 291 22 28 -10 52 -16 55 -13 3 3 -9 19 -28 35 -107 89 -249
92 -365 8 -24 -17 -53 -29 -71 -29 -43 0 -49 -9 -25 -35 l20 -21 -24 -59 c-26
-63 -59 -91 -77 -64 -12 17 -7 111 16 279 l18 125 58 43 c31 23 84 55 116 70
51 24 69 27 158 27 103 -1 129 -8 173 -48 21 -19 24 -20 39 -4 42 42 -65 82
-217 82 -98 -1 -109 -3 -165 -32 -33 -17 -81 -50 -107 -73 -27 -23 -48 -39
-48 -35 0 53 91 391 120 444 11 22 16 23 92 19 l80 -5 -7 35 c-5 26 -3 33 7
29 77 -32 80 -32 150 17 67 47 182 106 207 106 9 0 11 -6 6 -17z m1015 -89 c6
-7 17 -170 12 -184 -2 -6 -11 -10 -21 -10 -31 0 -118 30 -140 48 l-21 17 25
60 c31 75 48 88 100 80 21 -3 42 -8 45 -11z m765 -95 c47 -23 65 -58 72 -138
l6 -73 32 69 c39 85 75 108 153 101 78 -8 127 -45 162 -122 23 -52 34 -65 61
-75 83 -29 138 -105 139 -191 0 -81 -45 -125 -155 -155 -26 -7 -21 -9 45 -19
41 -7 86 -18 98 -25 32 -17 52 -69 52 -137 0 -69 -22 -119 -66 -147 -38 -25
-54 -54 -54 -100 -1 -48 -33 -111 -75 -143 -47 -36 -138 -46 -178 -19 -35 22
-87 102 -87 133 0 33 12 26 68 -43 39 -49 54 -61 81 -63 76 -7 139 59 153 160
8 58 12 65 63 113 54 50 55 51 55 109 0 114 -55 133 -350 120 -191 -8 -190 3
1 52 161 41 248 71 278 93 34 26 38 86 9 141 -19 35 -37 51 -84 75 -53 27 -62
37 -92 97 -28 55 -40 70 -76 87 -118 58 -155 10 -252 -333 -19 -66 -36 -122
-39 -125 -7 -6 4 307 11 328 3 8 2 46 -2 85 -8 85 -31 111 -104 121 -46 6 -72
28 -47 39 20 9 91 0 122 -15z m-371 -30 l168 -12 -5 -35 c-4 -19 -20 -63 -37
-99 -24 -53 -33 -64 -47 -58 -118 47 -297 103 -413 129 -17 3 -26 12 -26 25 0
15 16 26 66 45 37 14 78 23 95 21 17 -2 106 -9 199 -16z m-2584 -99 c0 -18 -7
-20 -60 -20 -70 0 -78 13 -17 27 66 16 77 15 77 -7z m-130 -180 c40 -69 48
-109 23 -118 -7 -2 -16 5 -19 15 -4 10 -20 51 -35 91 -32 82 -32 82 -20 82 5
0 28 -32 51 -70z m687 -790 c24 -63 26 -130 3 -130 -5 0 -21 17 -36 38 -42 56
-44 58 -44 35 0 -11 17 -40 38 -64 30 -35 37 -50 32 -72 l-5 -28 -42 31 -43
32 0 127 c0 71 3 149 6 174 l7 46 29 -62 c17 -34 41 -91 55 -127z m1652 -57
l1 -91 -42 -37 -43 -36 -5 33 c-5 27 0 39 27 71 30 34 47 87 23 72 -5 -3 -10
-12 -10 -19 0 -7 -11 -23 -26 -36 -21 -21 -27 -22 -35 -10 -17 27 -1 78 84
270 10 22 12 16 18 -50 3 -41 7 -116 8 -167z m965 -46 c0 -36 -6 -53 -22 -69
-31 -31 -48 -13 -33 34 6 18 16 53 22 78 10 39 12 42 22 25 6 -11 11 -42 11
-68z m-1150 -94 c13 -43 11 -254 -3 -281 -6 -12 -15 -22 -20 -22 -5 0 -8 66
-7 148 1 123 -1 147 -14 147 -11 0 -14 -11 -12 -45 1 -25 -1 -51 -6 -58 -5 -7
-33 -16 -64 -19 -61 -6 -88 10 -88 52 0 13 -4 36 -10 50 -20 52 -30 13 -30
-114 0 -97 -4 -132 -15 -147 -28 -37 -36 1 -30 141 3 79 2 136 -4 145 -14 20
-20 2 -23 -70 l-3 -55 -367 -3 -368 -2 -1 32 c-1 18 0 47 1 64 1 18 -3 35 -9
38 -19 12 -24 -46 -15 -158 8 -92 7 -114 -5 -128 -14 -16 -15 -16 -27 0 -9 12
-13 56 -14 144 0 123 -8 154 -31 131 -5 -5 -15 -37 -21 -71 l-12 -62 -74 0
-75 0 6 70 c3 38 2 72 -3 75 -16 10 -23 -65 -17 -187 4 -87 2 -118 -6 -115
-34 11 -49 240 -20 307 l11 25 683 -2 684 -2 9 -28z m-2287 -49 c-12 -38 -27
-72 -34 -77 -7 -4 -10 -15 -7 -25 2 -9 -1 -6 -8 7 -10 19 -9 25 2 35 16 11 43
77 35 84 -8 8 -24 -9 -19 -22 8 -20 -21 -27 -43 -10 -17 14 -16 14 5 4 19 -9
22 -8 22 9 0 11 10 26 23 32 12 7 26 18 30 26 18 30 16 4 -6 -63z m-147 -41
c-1 -14 -40 -56 -47 -49 -4 3 4 17 17 31 25 26 30 30 30 18z m10 -33 c0 -5 -4
-10 -10 -10 -5 0 -10 5 -10 10 0 6 5 10 10 10 6 0 10 -4 10 -10z m72 -50 c-2
-20 0 -22 8 -10 9 12 10 10 8 -10 -2 -20 -8 -25 -30 -24 -35 1 -35 -4 -2 -16
14 -6 24 -16 21 -23 -2 -6 0 -23 5 -35 4 -13 5 -29 1 -35 -10 -17 -11 -47 -1
-53 4 -3 8 9 8 25 0 17 5 31 10 31 12 0 13 -42 1 -55 -16 -19 -20 -83 -6 -102
17 -21 19 -43 5 -43 -5 0 -10 8 -10 18 0 13 -7 18 -22 18 -32 -1 -36 36 -7 63
24 22 20 51 -8 51 -10 0 -24 -10 -32 -21 -11 -18 -15 -19 -22 -8 -7 9 -8 0 -4
-26 5 -30 4 -36 -4 -25 -6 8 -11 23 -11 33 0 9 -4 17 -10 17 -27 0 2 -63 47
-105 21 -19 34 -35 28 -35 -5 0 -3 -4 5 -10 8 -5 11 -12 7 -16 -11 -11 -36 16
-30 32 3 10 -2 17 -14 20 -25 7 -76 104 -67 127 3 10 1 17 -6 17 -6 0 -8 -5
-4 -11 4 -7 1 -10 -7 -7 -15 5 -30 53 -22 74 3 8 9 11 15 8 5 -3 9 0 7 7 -1 8
-1 29 0 47 1 31 3 33 34 32 55 -3 65 -1 47 10 -12 8 -12 10 -1 10 11 0 11 3 0
17 -10 11 -10 14 -1 9 6 -4 12 -2 12 3 0 6 -4 11 -10 11 -5 0 -10 5 -10 11 0
6 16 9 38 7 33 -3 37 -6 34 -28z m54 -33 c-1 -7 -1 -9 1 -5 2 4 22 -5 43 -20
31 -21 38 -31 32 -47 -12 -33 -5 -108 12 -140 19 -36 21 -51 3 -33 -16 17 -48
119 -40 131 3 5 -1 13 -8 18 -11 7 -11 9 -1 9 10 0 10 3 -2 15 -8 8 -22 12
-30 9 -12 -5 -15 -2 -10 10 4 11 2 15 -8 11 -8 -3 -21 2 -29 11 -8 10 -9 15
-3 11 12 -7 23 20 25 63 1 24 1 24 9 -3 5 -16 7 -34 6 -40z m1954 -97 c0 -5
-12 -12 -27 -16 -46 -10 -79 -22 -62 -23 16 -1 39 -40 39 -66 0 -19 -87 -100
-227 -212 -96 -77 -119 -91 -134 -82 -26 14 -54 58 -43 68 5 5 61 48 124 96
155 117 170 131 170 160 0 14 5 25 12 25 6 0 9 2 7 4 -2 2 -24 0 -49 -4 -30
-5 -36 -8 -17 -9 50 -2 32 -34 -59 -104 l-86 -67 -69 63 c-40 36 -68 70 -69
82 0 19 6 20 127 18 l128 -1 -125 8 c-130 8 -150 10 -265 37 -58 14 -66 18
-45 24 40 11 670 11 670 -1z m-1940 -10 c0 -5 -4 -10 -10 -10 -5 0 -10 5 -10
10 0 6 5 10 10 10 6 0 10 -4 10 -10z m10 -35 c-6 -7 -11 -22 -10 -32 1 -10 1
-34 0 -53 -2 -31 -3 -30 -10 15 -5 37 -3 58 8 80 9 17 17 25 20 17 2 -7 -1
-19 -8 -27z m1408 -11 c6 -2 12 -14 12 -26 0 -15 25 -48 71 -94 l70 -71 -47
-38 c-34 -28 -50 -36 -61 -29 -30 19 -133 196 -133 229 0 17 3 34 6 38 6 5 51
1 82 -9z m-68 -125 c21 -41 121 -182 152 -216 l20 -21 -44 -26 c-83 -48 -303
-134 -315 -123 -2 2 9 42 25 88 16 46 48 149 72 227 48 157 46 156 90 71z
m-1360 -8 c-1 -13 -30 34 -30 48 0 9 7 3 15 -13 8 -15 15 -31 15 -35z m3156
34 c-3 -8 0 -16 7 -18 7 -2 8 -8 4 -13 -10 -11 -28 16 -20 31 4 6 1 6 -6 -1
-7 -7 -9 -22 -5 -39 5 -20 9 -23 15 -13 7 10 9 10 9 -2 0 -12 2 -13 9 -1 6 10
13 6 27 -18 10 -17 22 -31 27 -31 4 0 20 -11 35 -25 15 -14 33 -25 40 -25 7 0
15 -7 18 -15 4 -8 12 -15 19 -15 6 0 20 -9 30 -20 17 -19 17 -20 -9 -30 -35
-13 -46 -12 -23 1 24 14 21 33 -4 26 -14 -4 -19 -2 -16 7 9 23 -10 39 -45 39
-18 0 -27 2 -21 4 10 4 9 8 -1 19 -8 8 -19 14 -24 14 -14 0 -43 36 -35 43 3 4
1 7 -5 7 -6 0 -14 -5 -17 -10 -5 -8 -11 -8 -19 -1 -7 6 -15 9 -17 7 -9 -10 -6
80 3 91 13 16 31 6 24 -12z m-3091 5 c3 -5 -1 -10 -10 -10 -9 0 -13 5 -10 10
3 6 8 10 10 10 2 0 7 -4 10 -10z m1895 -97 c23 -60 46 -117 51 -128 13 -29 89
-249 89 -258 0 -12 -281 1 -296 14 -9 7 -28 9 -51 4 -80 -15 -206 -17 -214 -4
-6 10 -17 10 -56 0 -47 -13 -296 -25 -320 -16 -9 3 -10 12 -5 26 7 17 25 26
75 39 186 48 360 154 582 352 62 55 90 78 96 78 4 0 26 -48 49 -107z m-1879
57 c2 -33 3 -36 21 -54 17 -16 18 -15 14 26 -4 42 -3 43 9 14 18 -41 -2 -110
-32 -114 -23 -3 -40 28 -27 50 4 7 4 10 -1 6 -10 -10 -45 10 -44 25 0 9 2 9 6
0 9 -24 20 -13 27 27 6 41 25 55 27 20z m3027 -46 c0 -23 -8 -44 -24 -61 -13
-14 -24 -20 -24 -13 0 7 7 22 16 31 9 10 18 29 19 41 4 34 5 38 9 38 2 0 4
-16 4 -36z m-3114 -35 c-24 -27 -30 -16 -7 14 10 14 20 21 22 15 1 -5 -5 -18
-15 -29z m3199 -17 c27 -24 20 -36 -9 -13 -15 11 -30 18 -35 15 -5 -3 -9 2 -9
10 0 18 25 12 53 -12z m-3163 8 c0 -5 -5 -10 -11 -10 -5 0 -7 5 -4 10 3 6 8
10 11 10 2 0 4 -4 4 -10z m138 -15 c7 -15 8 -25 2 -25 -6 0 -10 7 -10 15 0 8
-4 15 -10 15 -5 0 -10 5 -10 10 0 19 17 10 28 -15z m-212 -17 c4 -7 4 -10 0
-7 -4 4 -21 -7 -37 -22 -17 -16 -39 -29 -48 -28 -12 0 -11 2 4 9 11 4 31 20
44 34 28 30 28 30 37 14z m175 -15 c-12 -20 -14 -14 -5 12 4 9 9 14 11 11 3
-2 0 -13 -6 -23z m30 -130 c-8 -14 -9 -11 -5 15 7 37 -2 42 -17 10 -9 -22 -9
-21 -6 5 5 30 -9 38 -16 10 -3 -10 -5 -3 -6 15 -1 33 12 44 23 17 9 -23 28
-18 26 8 -1 12 -1 29 1 37 1 8 4 -11 6 -42 2 -32 -1 -66 -6 -75z m347 115 c18
-18 14 -32 -4 -17 -15 12 -16 11 -10 -9 8 -24 -8 -31 -18 -7 -6 16 2 45 13 45
4 0 12 -5 19 -12z m2767 -22 c11 1 23 -2 27 -9 11 -18 10 -27 -4 -27 -10 0
-12 -20 -10 -74 4 -82 2 -85 -74 -91 -39 -4 -41 -2 -36 21 5 25 16 31 27 14 3
-5 10 -10 16 -10 13 0 11 37 -2 46 -8 4 -9 27 -5 68 4 33 7 67 8 74 1 9 5 9
17 -2 9 -7 25 -12 36 -10z m-220 4 c3 -5 1 -10 -4 -10 -6 0 -11 5 -11 10 0 6
2 10 4 10 3 0 8 -4 11 -10z m-2442 -33 c-5 -27 -6 -27 -20 -7 -8 11 -24 20
-36 19 -12 0 -16 -3 -9 -6 6 -2 10 -9 6 -14 -3 -5 4 -9 14 -9 11 0 22 -7 25
-14 9 -22 -4 -150 -15 -157 -6 -4 -9 -19 -8 -35 3 -48 1 -56 -17 -52 -13 2
-17 14 -18 55 0 33 4 48 10 42 12 -12 22 -11 28 4 6 15 -69 22 -78 7 -4 -6
-16 -8 -28 -4 -12 3 -19 3 -15 -1 9 -9 -62 -47 -77 -41 -5 2 -1 5 10 5 14 1
16 4 7 13 -8 8 -15 8 -27 -2 -10 -8 -15 -9 -15 -1 0 6 6 11 13 11 8 0 7 4 -3
10 -13 9 -13 10 0 10 13 0 13 1 0 10 -9 6 -11 13 -5 18 6 4 16 19 24 34 8 15
19 25 24 21 6 -3 7 -1 3 5 -3 6 2 23 11 39 16 25 24 28 71 28 43 0 49 2 36 12
-14 10 -10 13 22 18 22 3 46 7 54 9 8 1 16 2 17 2 1 -1 -1 -14 -4 -29z m-674
9 c10 -12 8 -13 -8 -9 -12 3 -21 9 -21 14 0 14 16 11 29 -5z m331 -20 c0 -6
-5 -5 -12 2 -7 7 -17 12 -22 12 -8 0 -8 -3 -1 -8 17 -12 35 -60 36 -95 0 -18
5 -41 10 -52 6 -14 7 -7 3 25 -4 33 -2 41 5 30 6 -8 11 -26 11 -40 0 -15 5
-31 12 -38 9 -9 9 -12 0 -12 -7 0 -12 4 -12 9 0 6 -9 8 -21 6 -15 -3 -23 2
-26 15 -6 21 -23 28 -23 9 0 -5 -4 -7 -10 -4 -5 3 -10 -3 -10 -14 0 -11 -4
-22 -10 -26 -5 -3 -7 -12 -3 -20 3 -8 0 -15 -7 -15 -7 0 -10 -6 -7 -14 3 -8
-1 -20 -10 -27 -11 -9 -14 -24 -10 -52 4 -30 3 -36 -7 -27 -12 9 -12 45 1 80
3 8 5 31 4 50 -1 27 1 31 8 20 9 -12 11 -11 11 8 0 16 4 21 13 16 9 -6 9 -4
-1 8 -7 9 -9 24 -5 34 7 18 6 18 -12 1 -15 -16 -16 -20 -4 -28 11 -7 11 -9 -3
-9 -10 0 -18 -10 -21 -27 l-4 -28 -2 30 c0 20 11 48 33 81 18 27 36 59 39 69
4 11 5 5 3 -12 -1 -18 1 -33 5 -33 12 0 18 42 8 67 -14 38 -11 44 16 31 14 -6
25 -16 25 -22z m196 7 c-10 -10 -19 5 -10 18 6 11 8 11 12 0 2 -7 1 -15 -2
-18z m-596 7 c8 -5 11 -10 5 -10 -5 0 -17 5 -25 10 -8 5 -10 10 -5 10 6 0 17
-5 25 -10z m-20 -15 c0 -12 -19 -12 -23 0 -4 9 -1 12 9 8 7 -3 14 -7 14 -8z
m2884 -12 c4 -16 9 -37 12 -48 3 -12 -2 -8 -13 10 -17 29 -18 29 -21 7 -2 -12
-12 -27 -23 -32 -19 -11 -19 -10 1 22 11 18 20 41 20 51 0 27 17 20 24 -10z
m746 -40 c0 -13 5 -23 10 -23 6 0 10 -8 10 -19 0 -22 25 -45 40 -36 5 3 10 -2
10 -14 0 -10 -6 -21 -12 -23 -9 -3 -13 -28 -14 -76 0 -39 3 -69 8 -66 5 3 15
1 22 -5 11 -9 12 -6 8 14 -2 14 0 25 6 25 14 0 22 50 12 90 -8 35 -8 35 -9
-12 -1 -27 -6 -48 -12 -48 -5 0 -8 4 -5 9 3 4 6 32 7 60 2 46 4 50 17 37 20
-20 27 -104 12 -141 -7 -16 -14 -39 -16 -50 -1 -11 -7 -31 -13 -45 -10 -22
-11 -21 -6 13 6 37 5 38 -17 32 -25 -8 -25 -8 -50 -6 -11 1 -15 6 -12 16 4 8
10 12 15 10 13 -9 22 41 17 100 -3 30 -2 52 2 50 3 -2 12 1 20 6 13 8 12 9 -2
7 -9 -2 -24 6 -32 17 -16 20 -16 20 -31 1 -8 -11 -12 -22 -9 -25 3 -3 8 0 13
7 10 17 11 -138 0 -165 -6 -16 -4 -27 7 -38 9 -8 11 -15 5 -15 -17 0 -13 -30
4 -36 8 -4 15 -11 15 -16 0 -6 -7 -8 -15 -4 -17 6 -34 -42 -18 -53 6 -3 -2
-19 -18 -36 -22 -22 -29 -26 -29 -13 0 9 6 19 13 22 9 5 9 7 -1 12 -6 3 -10
10 -6 15 3 5 -4 9 -16 9 -14 0 -19 -4 -14 -12 5 -8 0 -7 -11 2 -16 14 -17 13
-11 -6 7 -24 -26 -74 -50 -74 -8 0 -14 -7 -14 -15 0 -13 4 -14 20 -5 14 7 20
7 20 0 0 -5 -5 -10 -11 -10 -7 0 -9 -10 -7 -24 3 -14 1 -31 -4 -38 -6 -9 -8
-8 -6 7 2 11 -4 21 -13 23 -22 4 -20 -30 3 -46 11 -8 18 -24 17 -35 -2 -28 16
-74 24 -61 3 6 2 28 -3 50 -14 58 -11 75 5 26 7 -24 22 -53 32 -65 10 -11 13
-17 6 -13 -7 4 -17 -2 -23 -14 -6 -11 -18 -20 -26 -20 -8 0 -13 4 -10 9 3 5 0
21 -8 36 -8 15 -12 34 -9 43 4 10 2 13 -5 8 -7 -4 -12 -1 -12 7 0 20 -34 57
-53 57 -10 0 -20 14 -25 34 -11 38 -5 86 11 86 6 0 8 -3 4 -6 -3 -4 1 -13 9
-22 12 -12 18 -12 27 -2 9 10 9 11 -1 5 -11 -6 -11 -3 -1 12 10 16 9 26 -4 52
-8 17 -11 31 -6 31 5 0 12 -7 15 -15 9 -21 24 -19 24 4 0 11 5 23 10 26 13 8
10 95 -3 95 -5 0 -7 -17 -4 -37 3 -21 3 -30 0 -20 -4 17 -7 16 -26 -5 -26 -28
-57 -53 -57 -45 0 2 16 22 35 43 53 60 58 122 12 172 -11 12 -15 22 -9 22 7 0
22 -15 33 -32 17 -28 19 -29 14 -8 -4 14 -18 37 -32 51 l-24 26 22 6 c13 4 29
1 36 -5 11 -8 13 6 13 76 0 47 3 86 8 87 64 6 67 5 67 -31 0 -34 1 -35 40 -37
l40 -2 -32 10 c-18 5 -35 15 -39 21 -5 8 -2 9 12 4 10 -5 28 -11 39 -14 18 -5
18 -4 6 11 -7 9 -19 17 -26 17 -7 0 -15 8 -18 19 -4 17 -2 17 29 -3 21 -13 33
-29 34 -43z m-3157 37 c-3 -11 -9 -20 -13 -20 -4 0 -10 9 -13 20 -4 15 0 20
13 20 13 0 17 -5 13 -20z m2544 -12 c-3 -7 -5 -2 -5 12 0 14 2 19 5 13 2 -7 2
-19 0 -25z m200 0 c-3 -8 -6 -5 -6 6 -1 11 2 17 5 13 3 -3 4 -12 1 -19z
m-3271 0 c4 -7 3 -8 -4 -4 -7 4 -10 -3 -7 -23 3 -28 2 -29 -21 -19 l-24 11 22
24 c25 27 25 27 34 11z m3054 0 c0 -5 -12 -5 -27 -2 -40 10 -42 15 -5 12 18
-1 32 -6 32 -10z m255 -19 c11 -17 -1 -21 -15 -4 -8 9 -8 15 -2 15 6 0 14 -5
17 -11z m-282 -6 c-7 -2 -19 -2 -25 0 -7 3 -2 5 12 5 14 0 19 -2 13 -5z m37
-60 c-11 -17 -11 -17 -6 0 3 10 7 31 7 45 l2 27 4 -27 c2 -15 -1 -35 -7 -45z
m-2734 41 c-5 -12 -2 -15 11 -10 10 4 -2 -12 -26 -34 -24 -23 -45 -39 -47 -37
-9 8 8 36 24 40 10 3 4 5 -11 6 -34 1 -26 21 9 21 14 0 27 7 30 15 4 8 8 15
11 15 3 0 2 -7 -1 -16z m3389 6 c3 -6 -1 -7 -9 -4 -18 7 -21 14 -7 14 6 0 13
-4 16 -10z m-3682 -7 c-7 -2 -19 -2 -25 0 -7 3 -2 5 12 5 14 0 19 -2 13 -5z
m500 -23 c-6 -22 -23 -38 -23 -21 0 17 12 41 20 41 5 0 6 -9 3 -20z m2800 3
c-6 -16 -11 -16 -28 1 -12 12 -11 14 9 12 14 0 22 -6 19 -13z m-3388 -12 c-3
-6 -14 -11 -23 -11 -15 1 -15 2 2 15 21 16 32 13 21 -4z m3790 9 c3 -5 2 -10
-4 -10 -5 0 -13 5 -16 10 -3 6 -2 10 4 10 5 0 13 -4 16 -10z m-3745 -25 c0 -8
-4 -15 -10 -15 -5 0 -7 7 -4 15 4 8 8 15 10 15 2 0 4 -7 4 -15z m-94 -32 c1
-21 -1 -30 -3 -20 -3 9 -9 17 -14 17 -5 0 -4 9 3 20 7 11 13 20 13 20 1 0 1
-17 1 -37z m2944 12 c-7 -8 -16 -15 -21 -15 -5 0 -1 9 8 20 9 11 19 17 21 15
3 -3 -1 -11 -8 -20z m-2598 -10 c3 -13 1 -22 -3 -19 -5 3 -10 -3 -10 -13 -1
-17 -2 -17 -6 0 -2 9 -9 17 -15 17 -6 0 -8 -9 -5 -19 6 -24 -14 -18 -30 8 -11
18 -9 19 22 17 28 -3 35 0 35 15 0 27 7 23 12 -6z m592 10 c3 -8 1 -15 -4 -15
-6 0 -10 7 -10 15 0 8 2 15 4 15 2 0 6 -7 10 -15z m-397 -43 c-8 -10 -18 -27
-22 -40 -3 -12 -10 -20 -15 -17 -5 3 1 23 12 45 12 21 25 37 30 34 5 -3 3 -13
-5 -22z m2463 19 c0 -9 29 -7 75 5 17 4 18 3 5 -6 -12 -9 -12 -13 -2 -17 10
-4 10 -8 1 -19 -6 -8 -16 -14 -21 -14 -6 0 -6 6 1 14 9 11 7 15 -8 19 -20 5
-38 -22 -33 -50 2 -7 -6 -9 -20 -6 -18 4 -20 3 -8 -6 8 -6 10 -11 4 -11 -22 0
-23 14 -3 36 22 23 19 44 -7 44 -8 0 -14 5 -14 10 0 6 7 10 15 10 8 0 15 -4
15 -9z m115 -1 c3 -5 1 -10 -4 -10 -6 0 -11 5 -11 10 0 6 2 10 4 10 3 0 8 -4
11 -10z m-2175 -35 c0 -20 -5 -35 -12 -35 -6 0 1 -14 17 -30 27 -28 30 -29 37
-13 6 13 7 11 4 -7 -4 -21 -1 -25 18 -26 l23 -2 -21 39 c-16 29 -23 35 -29 23
-15 -26 -34 1 -29 42 l5 37 41 -64 c22 -35 53 -80 67 -99 39 -51 70 -110 59
-110 -6 0 -14 8 -17 18 -10 26 -41 63 -45 55 -3 -5 -3 -2 -1 5 1 7 -2 23 -9
35 l-12 22 -7 -25 -7 -25 -7 23 c-4 12 -11 22 -16 22 -4 0 -2 -15 6 -32 8 -18
19 -32 24 -31 7 2 8 -10 4 -30 -7 -40 -13 -48 -13 -18 0 33 -45 115 -80 144
-29 25 -40 57 -19 57 7 0 8 11 4 30 -4 19 -3 30 4 30 6 0 11 -16 11 -35z
m2580 25 c0 -5 -2 -10 -4 -10 -3 0 -8 5 -11 10 -3 6 -1 10 4 10 6 0 11 -4 11
-10z m-3547 -27 c-7 -3 -13 -12 -13 -20 0 -9 -2 -14 -5 -11 -4 3 -3 18 1 33 5
20 9 24 18 14 8 -8 8 -13 -1 -16z m297 -8 c0 -5 -5 -3 -10 5 -5 8 -10 20 -10
25 0 6 5 3 10 -5 5 -8 10 -19 10 -25z m2617 13 c0 -13 -1 -17 -4 -10 -3 6 -12
12 -21 13 -14 0 -13 2 3 9 11 5 20 9 20 9 1 1 1 -9 2 -21z m-2087 -165 c9 -24
9 -41 2 -62 -10 -28 -8 -32 39 -68 27 -20 49 -39 49 -41 0 -6 -40 -63 -78
-109 l-34 -42 -58 39 c-32 22 -89 51 -126 65 -73 27 -126 68 -117 90 5 14 84
45 112 45 13 -1 12 -4 -4 -16 -11 -8 -19 -20 -17 -25 1 -5 -10 -15 -25 -21
l-28 -12 25 -4 c19 -3 32 5 62 40 34 40 36 44 17 52 -22 11 -26 36 -4 36 9 0
12 6 9 15 -4 10 0 15 15 15 28 0 27 8 -11 47 -36 37 -25 42 29 13 46 -24 57
-17 78 55 23 79 39 76 46 -9 4 -39 12 -86 19 -103z m20 151 c0 -14 -4 -23 -9
-20 -5 3 -7 15 -4 26 7 28 13 25 13 -6z m2150 22 c0 -3 -4 -8 -10 -11 -5 -3
-10 -1 -10 4 0 6 5 11 10 11 6 0 10 -2 10 -4z m-2330 -26 c46 -24 52 -35 13
-25 -24 6 -25 4 -13 -10 12 -14 8 -16 -39 -12 -62 5 -68 9 -53 42 14 31 39 32
92 5z m3160 -20 c0 -22 -3 -40 -7 -40 -5 0 -8 18 -8 40 0 22 3 40 8 40 4 0 7
-18 7 -40z m-925 5 c14 -13 25 -20 25 -15 0 6 7 10 15 10 20 0 19 -17 -2 -29
-32 -17 -6 -23 29 -6 18 10 29 13 23 9 -5 -5 -25 -23 -44 -39 -31 -28 -33 -28
-26 -7 12 40 -23 40 -59 0 -27 -29 -38 -35 -69 -33 -29 2 -37 -1 -37 -14 0
-12 -2 -13 -9 -3 -5 9 -13 -2 -24 -35 -10 -31 -16 -40 -16 -25 -2 53 105 212
131 196 7 -5 5 -12 -6 -20 -11 -8 -13 -14 -7 -19 6 -3 11 -2 11 3 0 6 12 13
28 18 20 5 23 8 10 11 -10 3 -18 9 -18 14 0 16 20 10 45 -16z m-2873 -32 c-2
-18 -5 -33 -7 -33 -2 0 -5 15 -7 33 -2 20 1 34 7 34 6 0 9 -14 7 -34z m274 5
c-18 -26 -22 -17 -5 14 6 11 13 17 16 15 3 -3 -2 -16 -11 -29z m1803 -10 c-13
-46 -37 -78 -59 -78 -23 0 -23 0 -8 54 15 55 24 64 52 59 22 -4 23 -8 15 -35z
m-242 -22 c16 -53 14 -61 -14 -52 -21 7 -42 37 -54 78 -8 28 -7 29 23 26 28
-3 33 -8 45 -52z m1343 32 c5 -13 11 -34 14 -48 3 -14 11 -33 19 -43 13 -18
15 -18 55 3 52 27 62 22 28 -15 -32 -34 -33 -45 -5 -45 15 0 19 -5 15 -15 -3
-8 3 -19 12 -25 9 -6 13 -13 7 -16 -38 -17 -38 -22 -5 -62 33 -41 67 -59 84
-42 5 5 -2 12 -18 16 -14 3 -26 12 -26 20 0 7 -9 18 -21 24 -37 20 -13 22 50
4 46 -12 61 -21 61 -35 0 -25 -56 -65 -126 -89 -32 -11 -83 -36 -112 -56 l-53
-35 -30 68 c-42 95 -46 119 -20 132 17 10 20 18 15 54 -4 29 -1 56 10 82 12
29 15 54 10 92 -5 45 -4 53 10 53 9 0 21 -10 26 -22z m199 -5 c13 -29 3 -42
-34 -43 -11 0 -31 -3 -44 -7 -20 -5 -22 -3 -17 15 6 17 3 19 -14 15 -32 -8
-23 5 18 26 52 28 76 26 91 -6z m-3432 -15 c-3 -8 -6 -5 -6 6 -1 11 2 17 5 13
3 -3 4 -12 1 -19z m636 -15 c38 -29 58 -59 33 -50 -7 3 -18 1 -24 -5 -7 -7
-17 -5 -33 6 -29 20 -51 21 -25 1 21 -16 15 -18 -21 -9 -23 6 -37 42 -27 68 9
25 57 19 97 -11z m-613 -32 c0 -11 3 -28 6 -38 4 -14 4 -15 -4 -3 -17 27 -24
60 -13 60 6 0 11 -9 11 -19z m3468 -14 c4 -31 -12 -57 -35 -57 -13 0 -13 3 -3
15 16 19 1 19 -27 0 -14 -10 -32 -13 -53 -8 l-32 6 28 27 c41 38 66 50 94 47
19 -1 26 -8 28 -30z m-987 -24 c6 -16 13 -43 16 -60 l6 -33 -117 0 -117 0 3
53 3 52 60 6 c129 12 135 12 146 -18z m389 17 c0 -5 -4 -10 -10 -10 -5 0 -10
5 -10 10 0 6 5 10 10 10 6 0 10 -4 10 -10z m22 -17 c-6 -10 -15 -29 -20 -43
-8 -19 -11 -20 -11 -7 -1 21 28 81 35 74 3 -3 1 -13 -4 -24z m-2412 8 c0 -6
-4 -13 -10 -16 -5 -3 -10 1 -10 9 0 9 5 16 10 16 6 0 10 -4 10 -9z m98 -18
c27 -6 40 -23 17 -23 -9 0 -13 -5 -10 -10 4 -6 11 -7 17 -4 7 4 8 2 4 -4 -4
-7 -21 -12 -37 -12 -17 0 -28 -4 -25 -9 6 -8 -15 -21 -34 -21 -4 0 -13 14 -19
30 -9 26 -7 34 10 51 13 13 27 18 37 13 9 -3 27 -9 40 -11z m1359 4 c0 -1 3
-20 5 -42 l3 -40 -155 0 -155 0 -3 49 -3 49 153 -7 c84 -4 154 -8 155 -9z
m810 -49 c-3 -7 -5 -2 -5 12 0 14 2 19 5 13 2 -7 2 -19 0 -25z m-2693 -27 c-5
-7 -24 11 -35 32 -11 20 -9 20 13 -3 13 -14 23 -27 22 -29z m236 25 c0 -7 10
-26 22 -41 l21 -27 -21 13 c-12 8 -22 19 -22 26 0 7 -4 13 -10 13 -5 0 -10 9
-10 21 0 11 5 17 10 14 6 -3 10 -12 10 -19z m814 -11 c5 -22 4 -26 -4 -15 -5
8 -10 24 -10 34 0 26 6 18 14 -19z m1743 3 c-3 -7 -5 -2 -5 12 0 14 2 19 5 13
2 -7 2 -19 0 -25z m643 7 c15 -19 5 -64 -17 -72 -9 -4 -21 1 -28 10 -7 10 -25
17 -41 18 -16 0 -23 3 -16 6 18 7 15 21 -5 26 -12 2 -7 7 17 14 50 16 76 15
90 -2z m360 -15 c-6 -12 -14 -20 -17 -17 -2 3 1 14 8 26 17 26 24 19 9 -9z
m-220 10 c0 -5 -4 -10 -10 -10 -5 0 -10 5 -10 10 0 6 5 10 10 10 6 0 10 -4 10
-10z m177 -32 c-3 -8 -6 -5 -6 6 -1 11 2 17 5 13 3 -3 4 -12 1 -19z m-3690 -8
c-4 -15 0 -20 13 -20 25 0 50 -10 50 -21 0 -5 -11 -3 -25 3 -19 9 -28 9 -37 0
-7 -7 -17 -12 -22 -12 -6 0 -4 5 4 10 13 9 13 11 0 20 -10 6 -11 10 -2 10 6 0
12 7 12 15 0 8 3 15 6 15 4 0 4 -9 1 -20z m2640 -2 c-3 -8 -6 -5 -6 6 -1 11 2
17 5 13 3 -3 4 -12 1 -19z m-17 -20 c0 -5 -4 -8 -10 -8 -5 0 -10 10 -10 23 0
18 2 19 10 7 5 -8 10 -18 10 -22z m130 -1 c0 -5 -4 -5 -10 -2 -5 3 -10 14 -10
23 0 15 2 15 10 2 5 -8 10 -19 10 -23z m-2571 9 c7 -8 9 -25 5 -40 -4 -16 -2
-26 5 -26 6 0 11 8 11 18 0 22 9 34 21 27 12 -8 -13 -63 -27 -58 -6 2 -17 -8
-23 -24 l-11 -28 5 28 c4 21 2 28 -7 24 -7 -2 -12 -11 -10 -21 2 -9 -1 -16 -6
-16 -9 0 -6 89 3 118 6 16 20 15 34 -2z m1331 -1 c0 -12 -20 -15 -120 -15
-110 0 -132 5 -113 23 3 4 57 7 120 7 94 0 113 -3 113 -15z m630 0 c0 -12 -19
-15 -107 -15 -60 0 -115 4 -122 9 -9 6 -22 6 -32 1 -12 -7 -21 -5 -29 5 -11
13 6 15 139 15 128 0 151 -2 151 -15z m-305 -15 c11 -13 14 -20 6 -20 -18 0
-51 19 -51 30 0 17 26 11 45 -10z m1587 -12 c-8 -8 -9 -4 -5 13 4 13 8 18 11
10 2 -7 -1 -18 -6 -23z m-1512 -22 c0 -19 -4 -38 -10 -41 -12 -7 -24 39 -16
60 10 27 26 16 26 -19z m690 -7 c0 -34 19 -40 21 -6 1 13 3 16 6 6 2 -8 0 -26
-5 -39 -9 -23 -9 -23 -19 -5 -17 33 -27 89 -14 81 6 -4 11 -20 11 -37z m-1542
-10 c-3 -20 -5 -19 -9 9 -3 20 -2 29 4 23 5 -5 7 -19 5 -32z m1728 -36 c3 -13
9 -21 13 -19 4 3 12 -4 19 -15 7 -10 8 -19 3 -19 -5 0 -11 6 -14 13 -2 6 -4
-3 -5 -22 -1 -28 1 -31 11 -16 13 17 47 12 47 -7 0 -7 -5 -6 -13 1 -25 20
-107 -78 -87 -104 4 -5 11 -26 15 -45 7 -32 6 -34 -10 -20 -17 14 -18 13 -11
-14 7 -27 6 -28 -10 -15 -16 12 -17 12 -11 -3 4 -12 2 -18 -8 -18 -20 0 -19 9
2 32 12 13 18 38 19 79 0 36 -2 55 -7 47 -7 -11 -9 -11 -9 0 0 8 -22 35 -50
62 -34 33 -50 56 -49 72 1 17 3 18 6 6 2 -10 11 -18 19 -18 8 0 14 -9 14 -21
0 -16 4 -19 19 -14 14 4 23 0 31 -16 8 -15 9 -19 1 -15 -6 4 -11 2 -11 -4 0
-7 6 -10 13 -8 17 6 22 48 5 48 -7 0 -2 6 12 13 19 10 24 20 23 42 -1 15 -7
33 -14 39 -9 8 -10 3 -6 -21 4 -18 3 -35 -2 -37 -13 -9 -20 46 -9 68 10 19 11
18 29 -5 11 -13 22 -34 25 -46z m826 25 c-13 -13 -26 8 -17 30 6 16 7 16 17
-1 7 -13 7 -22 0 -29z m-3549 -14 c20 -33 27 -58 27 -95 0 -27 5 -49 10 -49 6
0 10 -5 10 -11 0 -6 -9 -9 -20 -6 -24 6 -24 8 -5 -36 8 -20 15 -60 16 -89 1
-29 4 -64 8 -78 4 -14 7 20 7 77 -1 95 5 125 20 110 12 -12 7 -119 -5 -126 -8
-6 -9 -19 -3 -48 8 -34 7 -40 -6 -39 -21 4 -30 31 -31 96 -1 30 -4 65 -7 77
-6 22 -6 22 -27 2 -25 -23 -37 -24 -37 -4 0 9 6 12 15 9 11 -5 13 -2 9 10 -5
12 -2 15 10 10 9 -3 16 -1 16 5 0 6 -4 11 -9 11 -6 0 -3 12 5 28 25 48 14 117
-25 152 -3 3 -12 13 -20 23 -11 14 -11 17 0 17 8 0 26 -21 42 -46z m1605 29
c-76 -2 -200 -2 -275 0 -76 1 -14 3 137 3 151 0 213 -2 138 -3z m620 0 c-65
-2 -171 -2 -235 0 -65 1 -12 3 117 3 129 0 182 -2 118 -3z m-457 -34 c-27 -22
-41 -24 -41 -6 0 13 50 37 60 29 3 -2 -6 -12 -19 -23z m-881 -23 c0 -26 -6
-18 -14 19 -5 22 -4 26 4 15 5 -8 10 -24 10 -34z m50 40 c0 -3 -4 -8 -10 -11
-5 -3 -10 -1 -10 4 0 6 5 11 10 11 6 0 10 -2 10 -4z m508 -22 c-3 -14 -20 -17
-133 -16 -109 1 -131 3 -133 16 -3 14 15 16 133 16 121 0 136 -2 133 -16z
m632 1 c0 -12 -20 -15 -112 -17 -140 -2 -168 -1 -175 6 -14 14 10 19 30 7 18
-12 23 -12 32 3 14 23 225 24 225 1z m-1090 -8 c0 -8 -11 -19 -25 -25 -31 -14
-33 0 -2 21 28 20 27 20 27 4z m-869 -36 c-6 -11 -11 -35 -12 -53 -1 -65 -14
-74 -28 -19 -13 53 -8 76 15 67 9 -3 16 4 21 22 3 15 8 22 10 15 3 -7 0 -21
-6 -32z m3390 2 c-10 -17 -10 -16 -11 3 0 23 13 41 18 25 2 -6 -1 -18 -7 -28z
m-1782 11 c30 -6 31 -8 31 -57 l0 -50 -117 6 c-65 4 -135 10 -155 13 -36 6
-38 9 -38 44 0 20 3 40 7 43 8 9 230 9 272 1z m648 -10 c4 -11 -152 -51 -239
-61 l-48 -6 0 42 0 42 142 -3 c90 -2 143 -7 145 -14z m-1487 -25 c0 -6 -4 -7
-10 -4 -5 3 -10 11 -10 16 0 6 5 7 10 4 6 -3 10 -11 10 -16z m50 -10 c0 -6 -4
-7 -10 -4 -5 3 -10 11 -10 16 0 6 5 7 10 4 6 -3 10 -11 10 -16z m1465 -78 c9
-35 14 -65 12 -67 -5 -6 -134 -32 -248 -50 -143 -23 -572 -28 -724 -9 -159 21
-314 50 -327 63 -11 11 34 142 48 142 7 0 24 -4 39 -10 33 -12 228 -46 315
-54 261 -25 539 -6 780 53 54 13 77 15 82 7 3 -6 14 -40 23 -75z m1017 38 c3
-17 2 -46 -2 -63 l-6 -31 -8 35 c-5 19 -8 43 -7 53 1 9 -3 17 -8 17 -6 0 -11
9 -11 20 0 34 37 6 42 -31z m-2562 26 c0 -8 -9 -19 -19 -24 -17 -10 -18 -9 -7
14 12 28 26 33 26 10z m49 -41 c-9 -22 -13 -25 -16 -12 -3 10 2 24 9 32 18 20
20 13 7 -20z m1971 -52 c0 -8 -16 7 -35 32 -19 26 -35 49 -35 53 0 12 69 -72
70 -85z m-85 65 c11 -11 8 -14 -15 -14 -22 0 -25 3 -16 13 14 17 15 17 31 1z
m652 -68 c-5 -4 -6 -17 -3 -30 6 -20 5 -21 -4 -7 -7 11 -8 33 -4 55 7 35 8 36
14 13 4 -14 2 -28 -3 -31z m-713 -28 c5 -44 -4 -51 -10 -9 -2 13 -6 37 -9 53
-5 22 -4 26 4 14 5 -8 12 -34 15 -58z m-1938 13 c-4 -9 -9 -15 -11 -12 -3 3
-3 13 1 22 4 9 9 15 11 12 3 -3 3 -13 -1 -22z m19 -14 c-9 -41 -17 -33 -9 9 4
17 9 30 11 27 3 -2 2 -19 -2 -36z m62 -27 c-2 -16 -4 -5 -4 22 0 28 2 40 4 28
2 -13 2 -35 0 -50z m-27 37 c0 -5 -4 -10 -10 -10 -5 0 -10 5 -10 10 0 6 5 10
10 10 6 0 10 -4 10 -10z m2726 -17 c-7 -7 -26 7 -26 19 0 6 6 6 15 -2 9 -7 13
-15 11 -17z m-3579 -25 c-3 -8 -6 -5 -6 6 -1 11 2 17 5 13 3 -3 4 -12 1 -19z
m-76 -9 c-12 -12 -25 -18 -28 -15 -4 3 2 13 13 21 29 22 41 18 15 -6z m853
-13 c-3 -15 -8 -25 -11 -23 -2 3 -1 17 3 31 3 15 8 25 11 23 2 -3 1 -17 -3
-31z m431 -64 c35 -101 129 -294 155 -317 29 -27 25 -11 -16 53 -58 89 -156
323 -142 337 2 3 17 1 33 -3 25 -7 38 -27 95 -138 71 -139 158 -274 242 -375
77 -93 199 -219 212 -219 6 0 -30 41 -79 91 -92 93 -96 105 -15 39 153 -124
335 -214 525 -260 110 -26 328 -39 340 -20 5 9 2 10 -15 5 -15 -5 -25 -2 -31
6 -11 18 -11 59 0 59 10 0 62 -39 73 -55 18 -24 7 -73 -22 -106 -31 -36 -36
-63 -21 -117 8 -27 6 -36 -14 -60 -23 -27 -23 -27 -162 -27 -152 0 -211 12
-336 66 -123 54 -269 150 -382 254 l-40 37 57 -36 c96 -59 188 -102 291 -135
106 -34 117 -36 117 -21 0 6 -7 10 -16 10 -75 0 -318 109 -427 191 -106 80
-231 214 -303 326 -83 127 -204 419 -204 490 0 20 3 21 29 12 24 -9 33 -22 56
-87z m1720 58 c5 -17 4 -22 -3 -15 -5 6 -13 21 -17 35 -5 17 -4 22 3 15 5 -5
13 -21 17 -35z m518 -30 c-3 -10 -1 -9 7 3 6 9 8 26 5 37 -5 14 -2 20 9 20 10
0 16 -9 16 -25 0 -14 -4 -25 -10 -25 -16 0 -22 -43 -11 -73 6 -16 7 -26 2 -23
-8 5 -26 72 -36 136 -4 23 -3 22 9 -5 8 -16 12 -36 9 -45z m152 60 c3 -5 1
-10 -4 -10 -6 0 -11 5 -11 10 0 6 2 10 4 10 3 0 8 -4 11 -10z m-1158 -70 c6
-36 14 -94 17 -130 3 -36 10 -96 16 -135 6 -38 12 -181 14 -317 l2 -247 -71 5
c-160 9 -300 47 -449 120 -123 61 -179 96 -281 177 -81 65 -195 191 -195 216
0 7 -4 10 -8 7 -12 -7 -122 180 -161 269 -16 39 -29 71 -28 72 1 1 45 -5 97
-13 52 -7 158 -18 235 -24 77 -5 145 -10 150 -11 19 -3 218 12 279 21 166 24
265 40 301 49 65 15 69 12 82 -59z m-2497 40 c0 -5 -4 -10 -10 -10 -5 0 -10 5
-10 10 0 6 5 10 10 10 6 0 10 -4 10 -10z m870 -35 c0 -5 -5 -3 -10 5 -5 8 -10
20 -10 25 0 6 5 3 10 -5 5 -8 10 -19 10 -25z m-847 8 c-10 -4 -10 -10 -2 -26
9 -16 8 -23 -5 -32 -9 -7 -16 -18 -17 -26 0 -10 -2 -11 -6 -2 -3 8 -15 11 -31
8 -25 -5 -25 -5 -4 4 15 7 22 19 22 38 0 20 7 31 23 39 12 5 24 8 27 6 3 -3
-1 -7 -7 -9z m940 -10 c-4 -11 -3 -14 5 -9 18 11 15 -9 -3 -24 -13 -11 -13
-15 -3 -21 11 -7 11 -9 0 -9 -7 0 -10 -4 -7 -10 7 -12 3 -12 -20 -4 -10 4 -12
9 -6 13 9 6 18 41 20 79 1 7 5 11 11 7 5 -3 6 -13 3 -22z m317 -281 c61 -127
142 -247 238 -351 22 -24 23 -26 5 -39 -42 -33 -210 -104 -300 -127 -54 -14
-100 -25 -103 -25 -5 0 -5 550 0 595 6 57 31 222 36 238 4 12 20 -21 45 -95
21 -62 57 -150 79 -196z m2395 298 c8 -13 -5 -13 -25 0 -13 8 -13 10 2 10 9 0
20 -4 23 -10z m35 0 c0 -5 -5 -10 -11 -10 -5 0 -7 5 -4 10 3 6 8 10 11 10 2 0
4 -4 4 -10z m-3796 -64 c-3 -9 -14 -16 -23 -16 -13 0 -13 2 -2 9 8 5 11 16 8
24 -3 8 -3 18 1 21 10 10 23 -21 16 -38z m2796 33 c0 -5 -5 -7 -11 -3 -6 3
-15 0 -20 -7 -4 -7 -11 -10 -14 -7 -11 11 5 28 26 28 10 0 19 -5 19 -11z m280
4 c0 -5 -5 -15 -10 -23 -8 -12 -10 -11 -10 8 0 12 5 22 10 22 6 0 10 -3 10 -7z
m690 -8 c10 -12 10 -16 -1 -19 -8 -2 -21 -6 -31 -9 -9 -3 -24 0 -33 7 -13 10
-9 11 27 9 24 -1 34 0 23 3 -31 9 -42 24 -18 24 11 0 26 -7 33 -15z m55 5 c-3
-5 -11 -10 -16 -10 -6 0 -7 5 -4 10 3 6 11 10 16 10 6 0 7 -4 4 -10z m-3662
-56 c21 5 21 4 4 -9 -18 -13 -18 -14 0 -24 24 -14 -2 -14 -29 0 -17 9 -18 13
-7 20 9 5 10 9 2 9 -10 0 -10 9 -2 45 1 6 4 -3 6 -18 4 -24 8 -28 26 -23z
m947 4 c0 -5 -4 -8 -10 -8 -5 0 -10 7 -10 15 0 10 -6 12 -17 8 -16 -6 -16 -5
-4 10 13 16 14 16 27 0 7 -10 14 -21 14 -25z m1697 26 c-3 -3 -12 -4 -19 -1
-8 3 -5 6 6 6 11 1 17 -2 13 -5z m-1803 -44 c8 0 16 -5 18 -11 5 -14 38 0 38
17 0 19 16 18 24 -1 3 -9 0 -15 -9 -15 -8 0 -15 -4 -15 -10 0 -5 -8 -10 -17
-10 -10 0 -29 -9 -43 -20 -31 -24 -50 -25 -50 -2 0 11 3 13 8 5 5 -8 12 -9 22
-2 13 8 13 10 0 19 -10 6 -11 10 -2 10 6 0 12 5 12 10 0 6 -7 10 -15 10 -8 0
-15 2 -15 4 0 2 -3 12 -7 22 -5 14 -2 13 15 -4 12 -12 28 -22 36 -22z m1901
10 c13 -5 14 -9 5 -9 -8 0 -24 4 -35 9 -13 5 -14 9 -5 9 8 0 24 -4 35 -9z m95
-11 c0 -14 -17 -10 -23 5 -4 10 -1 13 9 9 7 -3 14 -9 14 -14z m60 16 c0 -13
-47 -45 -64 -44 -19 1 -19 2 -2 6 10 3 28 14 39 24 21 19 27 23 27 14z m607
-1 c-3 -3 -12 -4 -19 -1 -8 3 -5 6 6 6 11 1 17 -2 13 -5z m-3447 -25 c0 -5 -4
-7 -10 -4 -5 3 -10 1 -10 -4 0 -6 5 -11 10 -11 6 0 10 -7 10 -16 0 -14 -2 -14
-15 0 -8 8 -15 22 -15 30 0 9 7 16 15 16 8 0 15 -5 15 -11z m3690 -202 c83
-40 138 -158 111 -240 -16 -46 -54 -79 -131 -113 -90 -38 -91 -42 -11 -36 122
8 193 -26 220 -107 27 -82 6 -162 -64 -240 -52 -58 -53 -61 -53 -120 0 -72
-27 -129 -85 -175 -31 -25 -49 -31 -104 -34 l-65 -4 -74 76 c-41 42 -74 74
-74 71 0 -2 11 -38 25 -79 29 -85 31 -125 10 -165 -51 -100 -194 -130 -309
-65 l-48 27 -48 -17 c-62 -22 -95 -23 -157 -2 -93 31 -154 122 -133 198 10 33
54 113 78 141 31 35 5 24 -57 -24 -105 -81 -180 -88 -245 -20 -28 29 -28 29
-6 36 14 4 28 1 40 -10 29 -26 92 -31 126 -9 50 32 134 102 272 226 73 66 135
118 138 116 2 -3 -24 -42 -58 -89 -110 -149 -237 -351 -244 -384 -11 -60 28
-110 109 -140 46 -17 51 -17 101 -2 74 24 105 21 169 -13 60 -32 92 -36 145
-17 40 15 90 61 97 90 10 38 -46 189 -157 426 -26 57 -46 106 -43 109 6 6 -1
15 79 -93 36 -49 69 -94 74 -100 4 -5 28 -37 54 -70 25 -33 70 -86 101 -117
44 -47 62 -58 87 -58 38 0 77 20 111 57 41 44 49 66 49 138 l0 67 51 51 c60
61 69 80 69 154 0 49 -4 59 -34 89 -34 34 -35 34 -123 34 -48 0 -137 -5 -196
-11 -59 -6 -111 -8 -115 -5 -17 18 26 45 139 87 215 79 249 103 249 179 0 33
-7 56 -27 85 -34 50 -48 61 -100 76 -35 9 -43 16 -43 35 0 21 3 24 28 18 15
-3 47 -16 72 -27z m-3996 -13 c3 -9 -5 -29 -19 -48 -14 -18 -25 -42 -25 -54 0
-29 53 -78 172 -159 145 -99 136 -92 115 -93 -10 0 -31 7 -47 15 -39 20 -151
62 -226 84 -57 17 -63 18 -88 2 -16 -9 -31 -31 -38 -53 -10 -33 -8 -43 16 -91
25 -51 26 -58 14 -101 -10 -39 -10 -50 5 -80 9 -19 28 -43 42 -52 22 -14 29
-15 57 -3 27 11 222 149 238 168 3 3 13 12 23 20 34 27 18 -12 -24 -59 -57
-62 -156 -196 -164 -219 -10 -31 21 -79 62 -96 28 -12 44 -13 75 -5 43 12 71
6 107 -21 55 -44 150 -6 151 61 0 13 -23 91 -51 173 -28 82 -49 150 -47 153 3
2 44 -56 92 -130 114 -177 144 -195 209 -133 27 25 35 43 41 83 4 32 14 58 26
69 19 17 22 18 37 2 16 -15 16 -18 1 -29 -9 -7 -19 -33 -22 -58 -9 -60 -36
-103 -79 -123 -51 -25 -100 -22 -136 8 l-30 26 1 -41 c0 -49 -20 -82 -65 -104
-47 -22 -104 -20 -151 5 -31 16 -48 19 -87 14 -60 -8 -107 6 -145 46 -24 25
-29 39 -29 77 0 26 4 55 9 65 7 15 5 16 -19 7 -41 -16 -76 -12 -112 13 -49 33
-67 78 -59 151 5 50 2 69 -14 101 -52 103 14 225 113 210 l38 -5 -25 33 c-38
50 -31 113 16 165 25 26 34 27 42 6z m1861 -514 c-11 -18 -169 -117 -255 -160
-243 -122 -327 -144 -384 -99 -31 24 -33 55 -6 89 23 30 24 42 6 95 -8 22 -11
43 -7 48 4 4 44 12 88 17 102 13 260 66 355 118 l73 40 68 -69 c37 -38 65 -74
62 -79z m133 -106 c59 -45 67 -65 43 -112 -10 -20 -21 -48 -24 -62 -3 -14 -13
-34 -21 -45 -13 -18 -15 -16 -30 35 -9 29 -22 63 -29 74 -23 35 -28 108 -10
128 9 10 18 18 20 18 2 0 25 -16 51 -36z m-198 -104 c0 -28 -87 -55 -145 -44
-49 9 -33 24 42 40 73 15 103 17 103 4z m430 -25 c14 -8 21 -14 15 -14 -5 0
-21 6 -35 14 -14 8 -20 14 -15 14 6 0 21 -6 35 -14z m-746 -39 c-5 -21 -10
-25 -28 -20 -38 11 -40 23 -5 37 19 8 35 13 37 12 2 -2 0 -15 -4 -29z m-642
-143 c15 -13 23 -14 43 -5 39 18 83 4 116 -38 17 -20 41 -43 54 -50 32 -17 50
-71 37 -108 -8 -22 -6 -33 9 -51 27 -33 24 -87 -6 -127 -14 -18 -25 -42 -25
-54 0 -26 -45 -70 -74 -71 -12 -1 -26 -2 -32 -3 -6 0 -25 -16 -43 -35 -28 -30
-34 -33 -73 -27 -24 4 -64 8 -90 10 -58 3 -97 28 -105 66 -4 20 -11 30 -24 30
-10 0 -33 13 -51 29 -27 24 -33 37 -33 72 -1 24 -7 57 -14 73 -15 37 1 90 35
113 18 12 24 24 24 53 0 42 38 90 72 90 11 0 33 11 50 25 35 30 101 34 130 8z
m997 -99 c3 -3 -3 -12 -13 -20 -21 -15 -127 -18 -161 -5 -17 7 -12 11 30 25
46 14 130 15 144 0z m460 -6 c25 -10 25 -11 6 -18 -49 -21 -165 -7 -165 20 0
21 104 20 159 -2z m-457 -110 c14 -12 13 -17 -8 -47 -13 -19 -24 -29 -24 -24
0 6 -16 21 -35 34 -19 13 -35 27 -35 31 0 18 81 22 102 6z m379 1 c19 -10 17
-12 -21 -40 -23 -17 -43 -29 -44 -27 -33 51 -36 59 -24 62 7 3 20 7 28 9 25 9
40 8 61 -4z m-460 -46 c31 -18 40 -39 13 -29 -9 3 -41 6 -72 6 l-57 1 24 19
c29 25 54 25 92 3z m114 7 c-3 -5 -11 -10 -16 -10 -6 0 -7 5 -4 10 3 6 11 10
16 10 6 0 7 -4 4 -10z m439 -9 l28 -19 -78 -4 c-44 -3 -80 -4 -82 -3 -8 6 65
45 83 45 11 0 33 -9 49 -19z m-383 -1 c12 -7 19 -21 19 -38 0 -68 -75 -100
-104 -44 -12 24 -12 30 3 48 14 17 48 43 59 44 2 0 12 -5 23 -10z m183 -21
c35 -30 35 -31 21 -60 -30 -56 -108 -26 -108 42 0 56 36 63 87 18z m-319 -30
c21 -10 30 -21 30 -39 0 -23 -4 -25 -57 -28 -63 -3 -158 29 -158 54 0 32 126
41 185 13z m538 10 c47 -13 44 -27 -13 -56 -56 -29 -157 -33 -167 -7 -20 53
86 90 180 63z m10 -86 c-7 -2 -10 -10 -7 -18 4 -9 -10 -22 -37 -36 -37 -18
-54 -21 -114 -16 -90 8 -143 25 -151 49 -9 29 0 31 37 10 48 -27 129 -27 209
1 36 12 67 21 70 18 3 -2 0 -6 -7 -8z m-689 -5 c-5 -7 -2 -9 8 -6 8 3 39 0 68
-8 75 -19 129 -18 175 6 41 21 51 20 42 -3 -15 -40 -179 -71 -250 -48 -49 17
-89 71 -51 71 9 0 12 -5 8 -12z"/>
<path d="M7793 8666 c-15 -13 -43 -27 -61 -31 -39 -8 -71 -49 -56 -73 6 -8 45
-39 88 -69 43 -29 73 -53 65 -53 -7 0 -50 12 -96 27 -64 21 -88 25 -101 17
-20 -13 -28 -72 -13 -87 6 -6 11 -33 11 -59 0 -61 28 -95 63 -77 20 11 94 65
107 79 21 21 50 41 50 34 0 -5 -22 -40 -50 -77 -61 -84 -67 -103 -44 -128 12
-14 30 -19 65 -19 26 0 60 -5 74 -12 19 -8 31 -8 50 0 32 15 32 41 -1 132 -14
39 -24 76 -21 83 2 6 21 -15 43 -48 53 -81 75 -105 94 -105 25 0 50 33 57 73
3 20 16 46 29 58 26 24 31 58 12 77 -8 8 -48 12 -112 12 -55 0 -96 4 -90 8 5
5 36 16 69 26 91 28 115 43 115 72 0 28 -11 42 -50 62 -14 7 -34 28 -45 45
-22 35 -64 47 -82 25 -6 -7 -24 -56 -41 -108 l-30 -95 -1 106 c-1 67 -5 109
-13 117 -19 19 -54 14 -85 -12z"/>
<path d="M5485 7430 c3 -5 21 -10 38 -10 18 0 43 -9 57 -20 14 -11 31 -20 38
-20 23 0 1 21 -42 41 -44 20 -101 26 -91 9z"/>
<path d="M6364 7421 c-39 -18 -65 -41 -47 -41 5 0 26 9 48 20 22 11 52 20 67
20 15 0 28 5 28 10 0 16 -52 11 -96 -9z"/>
<path d="M5460 7179 c-42 -17 -88 -69 -111 -126 -37 -92 -14 -218 53 -280 30
-28 89 -53 125 -53 68 1 146 60 179 139 25 57 22 158 -7 216 -37 73 -86 108
-157 112 -31 1 -68 -2 -82 -8z m168 -35 c44 -34 74 -97 80 -169 6 -80 -24
-152 -81 -198 -36 -28 -49 -32 -102 -32 -52 0 -67 4 -97 27 -94 72 -107 257
-25 347 59 63 159 75 225 25z"/>
<path d="M5542 7060 c-1 -41 -38 -90 -73 -97 -16 -3 -29 -11 -29 -18 0 -26 30
-71 59 -88 27 -16 34 -16 64 -3 49 20 75 88 58 149 -13 44 -46 87 -66 87 -7 0
-12 -14 -13 -30z"/>
<path d="M6340 7166 c-133 -69 -157 -284 -45 -392 148 -142 368 35 315 254
-32 136 -156 199 -270 138z m146 -5 c140 -63 153 -293 23 -385 -116 -82 -250
-7 -266 148 -12 115 53 224 148 246 49 11 50 11 95 -9z"/>
<path d="M6440 7057 c0 -36 -36 -79 -77 -92 -31 -9 -30 -45 2 -83 31 -37 53
-43 94 -26 72 30 80 183 11 219 l-30 16 0 -34z"/>
<path d="M5963 6764 c-3 -8 -1 -20 6 -27 8 -8 11 -4 11 16 0 30 -7 35 -17 11z"/>
<path d="M4305 6150 c3 -5 8 -10 11 -10 2 0 4 5 4 10 0 6 -5 10 -11 10 -5 0
-7 -4 -4 -10z"/>
<path d="M4400 6371 c0 -5 7 -11 15 -15 8 -3 15 -1 15 3 0 5 -7 11 -15 15 -8
3 -15 1 -15 -3z"/>
<path d="M7620 5840 c0 -40 4 -70 10 -70 6 0 10 30 10 70 0 40 -4 70 -10 70
-6 0 -10 -30 -10 -70z"/>
<path d="M4790 5864 c0 -8 5 -12 10 -9 6 4 8 11 5 16 -9 14 -15 11 -15 -7z"/>
<path d="M4790 5830 c0 -5 -7 -7 -15 -4 -10 4 -15 0 -15 -14 0 -11 -6 -23 -12
-25 -10 -4 -9 -8 2 -16 19 -14 43 -14 35 -1 -3 6 -1 10 5 10 7 0 9 7 6 16 -4
9 -1 23 5 30 8 10 8 14 0 14 -6 0 -11 -4 -11 -10z"/>
<path d="M4750 5750 c8 -5 22 -9 30 -9 10 0 8 3 -5 9 -27 12 -43 12 -25 0z"/>
<path d="M4915 5670 c3 -5 8 -10 11 -10 2 0 4 5 4 10 0 6 -5 10 -11 10 -5 0
-7 -4 -4 -10z"/>
<path d="M4616 5861 c-4 -7 -5 -15 -2 -18 9 -9 19 4 14 18 -4 11 -6 11 -12 0z"/>
<path d="M7650 5741 c0 -5 7 -14 15 -21 16 -14 18 -10 9 14 -6 17 -24 22 -24
7z"/>
<path d="M7810 5440 c0 -5 5 -10 11 -10 5 0 7 5 4 10 -3 6 -8 10 -11 10 -2 0
-4 -4 -4 -10z"/>
<path d="M7645 5330 c3 -5 8 -10 11 -10 2 0 4 5 4 10 0 6 -5 10 -11 10 -5 0
-7 -4 -4 -10z"/>
<path d="M4130 5860 c0 -5 5 -10 10 -10 6 0 10 5 10 10 0 6 -4 10 -10 10 -5 0
-10 -4 -10 -10z"/>
<path d="M5030 5689 c0 -11 4 -18 10 -14 5 3 7 12 3 20 -7 21 -13 19 -13 -6z"/>
<path d="M6835 5640 c-3 -5 -1 -10 4 -10 6 0 11 5 11 10 0 6 -2 10 -4 10 -3 0
-8 -4 -11 -10z"/>
<path d="M6861 5626 c-8 -9 -11 -19 -7 -23 9 -9 29 13 24 27 -2 8 -8 7 -17 -4z"/>
<path d="M6803 5605 c-19 -21 -16 -27 7 -15 11 6 20 15 20 20 0 14 -13 12 -27
-5z"/>
<path d="M4321 5414 c0 -11 3 -14 6 -6 3 7 2 16 -1 19 -3 4 -6 -2 -5 -13z"/>
<path d="M6928 5283 c7 -3 16 -2 19 1 4 3 -2 6 -13 5 -11 0 -14 -3 -6 -6z"/>
<path d="M6850 5260 c0 -5 5 -10 10 -10 6 0 10 5 10 10 0 6 -4 10 -10 10 -5 0
-10 -4 -10 -10z"/>
<path d="M4283 5101 c0 -11 5 -17 9 -15 11 7 10 34 -1 34 -6 0 -9 -9 -8 -19z"/>
<path d="M5068 4913 c7 -3 16 -2 19 1 4 3 -2 6 -13 5 -11 0 -14 -3 -6 -6z"/>
<path d="M5471 4145 c-45 -35 -95 -72 -112 -82 -16 -10 -29 -21 -29 -26 0 -16
174 108 215 153 31 34 11 23 -74 -45z"/>
<path d="M5271 4073 c0 -5 4 -17 9 -28 8 -18 9 -17 9 8 1 15 -3 27 -9 27 -5 0
-10 -3 -9 -7z"/>
<path d="M4724 3748 c-15 -13 -46 -30 -68 -38 -35 -13 -41 -20 -41 -45 0 -26
10 -37 73 -80 40 -27 69 -51 63 -53 -5 -2 -42 8 -81 22 -88 32 -96 32 -116 2
-14 -23 -14 -28 1 -60 10 -21 15 -46 11 -60 -6 -23 24 -76 43 -76 4 0 40 25
80 56 40 31 74 54 77 51 3 -2 -18 -35 -45 -72 -70 -94 -66 -125 16 -125 23 0
53 -5 67 -11 13 -6 36 -9 50 -5 34 8 34 33 0 126 -14 40 -24 73 -22 76 2 2 26
-27 54 -64 50 -69 81 -86 110 -62 7 7 14 25 14 39 0 16 10 37 24 50 31 29 37
55 19 80 -12 19 -25 21 -106 22 l-92 1 45 14 c165 55 167 60 76 149 -37 36
-73 65 -81 65 -19 0 -32 -25 -60 -118 l-24 -77 0 92 c-1 69 -5 95 -17 107 -21
22 -36 20 -70 -6z"/>
</g>
</svg>
